<svg xmlns="http://www.w3.org/2000/svg" xmlns:xlink="http://www.w3.org/1999/xlink" width="88" height="1616" viewBox="0 0 88 1616">
    <defs>
        <path id="b" d="M0 0h88v1616H0z"/>
        <filter id="a" width="296.6%" height="111.1%" x="-98.3%" y="-4.8%" filterUnits="objectBoundingBox">
            <feOffset dy="11" in="SourceAlpha" result="shadowOffsetOuter1"/>
            <feGaussianBlur in="shadowOffsetOuter1" result="shadowBlurOuter1" stdDeviation="7.5"/>
            <feColorMatrix in="shadowBlurOuter1" result="shadowMatrixOuter1" values="0 0 0 0 0 0 0 0 0 0 0 0 0 0 0 0 0 0 0.2 0"/>
            <feMorphology in="SourceAlpha" operator="dilate" radius="4" result="shadowSpreadOuter2"/>
            <feOffset dy="9" in="shadowSpreadOuter2" result="shadowOffsetOuter2"/>
            <feGaussianBlur in="shadowOffsetOuter2" result="shadowBlurOuter2" stdDeviation="23"/>
            <feColorMatrix in="shadowBlurOuter2" result="shadowMatrixOuter2" values="0 0 0 0 0 0 0 0 0 0 0 0 0 0 0 0 0 0 0.12 0"/>
            <feMorphology in="SourceAlpha" operator="dilate" radius="1.5" result="shadowSpreadOuter3"/>
            <feOffset dy="24" in="shadowSpreadOuter3" result="shadowOffsetOuter3"/>
            <feGaussianBlur in="shadowOffsetOuter3" result="shadowBlurOuter3" stdDeviation="19"/>
            <feColorMatrix in="shadowBlurOuter3" result="shadowMatrixOuter3" values="0 0 0 0 0 0 0 0 0 0 0 0 0 0 0 0 0 0 0.14 0"/>
            <feMerge>
                <feMergeNode in="shadowMatrixOuter1"/>
                <feMergeNode in="shadowMatrixOuter2"/>
                <feMergeNode in="shadowMatrixOuter3"/>
            </feMerge>
        </filter>
        <path id="c" d="M3.473 11.098l.093-.205a2.606 2.606 0 0 1 .27-.428l.55.504c-.054.101-.14.273-.257.515-.11.227-.215.403-.316.528-.102.125-.25.248-.446.369-.195.121-.453.205-.773.252-.32.047-.723.07-1.207.07l-.364.012-.011-.387c0-.61.047-1.092.14-1.447.094-.356.217-.611.37-.768.152-.156.376-.308.673-.457a5.01 5.01 0 0 0 .61-.351l.457.586c-.18.14-.422.285-.727.433a6.49 6.49 0 0 0-.264.147 1.005 1.005 0 0 0-.199.17.675.675 0 0 0-.158.27c-.031.1-.06.24-.088.415a5.32 5.32 0 0 0-.053.639c.32-.008.58-.033.78-.076.199-.043.36-.11.48-.2.121-.09.205-.17.252-.24.047-.07.11-.187.188-.351zm5.8-8.133a1.545 1.545 0 0 1 .89.287c.126.09.233.197.323.322a1.545 1.545 0 0 1 .287.89 1.487 1.487 0 0 1-1.5 1.5 1.487 1.487 0 0 1-1.5-1.5c0-.413.147-.767.44-1.06.293-.293.646-.44 1.06-.44zm.528 2.027a.72.72 0 0 0 .222-.527.749.749 0 0 0-.75-.75.715.715 0 0 0-.533.223.73.73 0 0 0-.217.527.73.73 0 0 0 .217.527c.145.149.32.223.528.223a.727.727 0 0 0 .533-.223zm3.21-3.902c0 .078.005.183.012.316a15.876 15.876 0 0 1-.053 1.664c-.027.32-.08.68-.157 1.078a7.148 7.148 0 0 1-.293 1.079c-.141.382-.301.709-.48.978-.18.27-.446.56-.798.873-.156.14-.377.295-.662.463-.285.168-.65.367-1.096.598-.445.23-.738.388-.879.474-.046.024-.142.074-.287.153-.144.078-.257.14-.34.187-.082.047-.15.09-.205.129v1.934a.54.54 0 0 1-.005.076.247.247 0 0 1-.024.076.367.367 0 0 1-.047.07.886.886 0 0 1-.052.059L6.25 12.68a.359.359 0 0 1-.246.093.16.16 0 0 1-.035-.005.172.172 0 0 0-.041-.006.04.04 0 0 1-.03-.012.339.339 0 0 1-.257-.27l-.457-1.933-.844-.938a30.093 30.093 0 0 1-.809-.914L1.293 8.18a.35.35 0 0 1-.275-.252.342.342 0 0 1 .076-.358l1.37-1.5a.384.384 0 0 1 .282-.117h2.086a3.454 3.454 0 0 0 .14-.264c.024-.05.048-.095.071-.134.023-.04.05-.092.082-.159l.07-.146.082-.164.176-.346.2-.392c.038-.078.099-.198.181-.358.082-.16.15-.285.205-.375.055-.09.117-.197.188-.322a3.113 3.113 0 0 1 .41-.574c.554-.649 1.191-1.106 1.91-1.371A9.911 9.911 0 0 1 11.014.79a11.252 11.252 0 0 1 1.19-.064 5.714 5.714 0 0 1 .456.011.374.374 0 0 1 .24.112.374.374 0 0 1 .112.24zm-1.195 3.867c.329-.883.48-2.043.457-3.48-1.273-.008-2.43.183-3.468.574-.602.219-1.137.601-1.606 1.148a4.254 4.254 0 0 0-.21.293 8.096 8.096 0 0 0-.206.322 9.864 9.864 0 0 0-.228.41c-.094.176-.16.305-.2.387a30.171 30.171 0 0 1-.41.815c-.273.554-.465.918-.574 1.09l-.04.058a.204.204 0 0 1-.042.041.617.617 0 0 1-.111.065.368.368 0 0 1-.123.023H2.922l-.844.89 1.711.387c.04.008.076.024.111.047.036.024.069.051.1.082l1.805 2.016c.039.04.07.094.093.164l.329 1.418.796-.867V8.883c0-.031.004-.06.012-.088a.44.44 0 0 1 .07-.147.21.21 0 0 1 .06-.058c.085-.07.444-.281 1.077-.633.14-.086.418-.234.832-.445s.762-.399 1.043-.563c.281-.164.492-.308.633-.433.297-.266.518-.508.662-.727.145-.219.28-.496.404-.832z"/>
        <path id="e" d="M.27 4.29a.357.357 0 0 1-.2-.34c0-.071.02-.136.059-.194A.39.39 0 0 1 .28 3.62L5.906.797a.372.372 0 0 1 .34 0l5.566 2.824a.349.349 0 0 1 .147.135.369.369 0 0 1 .053.193.336.336 0 0 1-.188.34L6.188 7.324c-.024.008-.051.016-.083.024a.441.441 0 0 1-.27-.023L.27 4.288zm5.8-2.743L1.254 3.973l4.758 2.59 4.816-2.59L6.07 1.547zm5.672 4.828c.14.07.211.182.211.334a.352.352 0 0 1-.2.334L6.13 10.078a.514.514 0 0 1-.088.035.319.319 0 0 1-.088.012.416.416 0 0 1-.187-.047L.199 7.043a.341.341 0 0 1-.193-.334.364.364 0 0 1 .205-.334l1.184-.586.796.434-.996.504 4.758 2.59 4.817-2.59-.938-.48.797-.434 1.113.562zm0 2.625c.14.07.211.182.211.334a.352.352 0 0 1-.2.334L6.13 12.703a.514.514 0 0 1-.088.035.319.319 0 0 1-.152.006.334.334 0 0 1-.059-.017 1.173 1.173 0 0 0-.064-.024L.199 9.668a.341.341 0 0 1-.193-.334A.364.364 0 0 1 .21 9l1.113-.504.797.434-.926.422 4.758 2.59 4.817-2.59-.88-.434.797-.434L11.742 9z"/>
        <path id="g" d="M7.492 12.129c.11.117.131.25.065.398-.067.149-.178.223-.334.223H.777a.37.37 0 0 1-.34-.223.345.345 0 0 1 .07-.398L2.5 9.762V5.625h-.246c-.11 0-.2-.037-.27-.111a.378.378 0 0 1-.105-.27c0-.105.035-.193.105-.264.07-.07.16-.105.27-.105h.621a.37.37 0 0 1 .375.375v4.652a.374.374 0 0 1-.094.258L1.621 12H6.38l-1.535-1.84a.374.374 0 0 1-.094-.258V5.25a.37.37 0 0 1 .375-.375h.621a.358.358 0 0 1 .375.37.378.378 0 0 1-.105.269.355.355 0 0 1-.27.111H5.5v4.137l1.992 2.367zM3.625 4.5a.752.752 0 0 1-.258-.047.82.82 0 0 1-.31-.223.73.73 0 0 1-.135-.222.637.637 0 0 1-.047-.258.754.754 0 0 1 .217-.533.754.754 0 0 1 1.06 0c.149.144.223.32.223.527a.727.727 0 0 1-.223.533.72.72 0 0 1-.527.223zM5.137 3a1.27 1.27 0 0 1-.387-.932c0-.363.129-.673.387-.931A1.27 1.27 0 0 1 6.068.75c.364 0 .674.129.932.387s.387.568.387.931c0 .364-.13.674-.387.932a1.27 1.27 0 0 1-.932.387A1.27 1.27 0 0 1 5.137 3zm.926-1.5a.542.542 0 0 0-.399.164.542.542 0 0 0-.164.399.573.573 0 0 0 .563.563c.156-.001.289-.056.398-.165a.542.542 0 0 0 .164-.398.609.609 0 0 0-.041-.223.52.52 0 0 0-.299-.299.609.609 0 0 0-.223-.041z"/>
        <circle id="i" cx="8" cy="8" r="8"/>
    </defs>
    <g fill="none" fill-rule="evenodd">
        <use fill="#000" filter="url(#a)" opacity=".4" xlink:href="#b"/>
        <path fill="#FFF" d="M0 0h88v1616H0z"/>
        <g transform="translate(37 156)">
            <mask id="d" fill="#fff">
                <use xlink:href="#c"/>
            </mask>
            <use fill="#000" xlink:href="#c"/>
            <g fill="#303030" mask="url(#d)">
                <path d="M-5-5h24v24H-5z"/>
            </g>
        </g>
        <text fill="#000" fill-opacity=".6" font-family="Barlow-Regular, Barlow" font-size="12" transform="translate(0 135)">
            <tspan x="11.186" y="52">Organization</tspan>
        </text>
        <g transform="translate(38 291)">
            <mask id="f" fill="#fff">
                <use xlink:href="#e"/>
            </mask>
            <use fill="#000" xlink:href="#e"/>
            <g fill="#303030" mask="url(#f)">
                <path d="M-6-5h24v24H-6z"/>
            </g>
        </g>
        <text fill="#000" fill-opacity=".6" font-family="Barlow-Regular, Barlow" font-size="12" transform="translate(0 270)">
            <tspan x="20.33" y="52">Materials</tspan>
        </text>
        <g>
            <g transform="translate(40 426)">
                <mask id="h" fill="#fff">
                    <use xlink:href="#g"/>
                </mask>
                <use fill="#000" xlink:href="#g"/>
                <g fill="#303030" mask="url(#h)">
                    <path d="M-8-5h24v24H-8z"/>
                </g>
            </g>
            <g transform="translate(44 413)">
                <mask id="j" fill="#fff">
                    <use xlink:href="#i"/>
                </mask>
                <g fill="#FF386B" mask="url(#j)">
                    <path d="M0 0h16v16H0z"/>
                </g>
                <text fill="#FFF" font-family="Barlow-Bold, Barlow" font-size="8" font-weight="bold" letter-spacing="-.1" mask="url(#j)">
                    <tspan x=".778" y="10.2">2</tspan>
                </text>
            </g>
            <text fill="#000" fill-opacity=".6" font-family="Barlow-Regular, Barlow" font-size="12" transform="translate(0 405)">
                <tspan x="19.496" y="52">Suppliers</tspan>
            </text>
        </g>
        <g fill="#4A285E">
            <path d="M26.335 35.309c0-1.305-.71-1.458-1.246-1.458-.537 0-1.246.153-1.246 1.458v5.57c0 1.329.666 1.48 1.246 1.48s1.246-.151 1.246-1.48v-1.022h3.78v.893c0 3.133-2.062 5.31-5.026 5.31s-5.026-2.177-5.026-5.31v-5.31c0-3.112 2.062-5.288 5.026-5.288s5.026 2.176 5.026 5.288v.696h-3.78v-.827zM34.41 45.798h3.78V30.435h-3.78zM43.13 45.798V30.435h4.962c2.964 0 5.025 2.045 5.025 5.767v.413c0 2.22-.73 3.808-1.954 4.744l1.826 4.44h-4.102l-1.16-3.505h-.795v3.504h-3.801zm3.802-11.664v4.504h.687c.752 0 1.74-.217 1.74-2.067v-.348c0-1.85-.924-2.089-1.74-2.089h-.687zM63.147 35.309c0-1.305-.709-1.458-1.246-1.458-.536 0-1.245.153-1.245 1.458v5.57c0 1.329.666 1.48 1.245 1.48.58 0 1.246-.151 1.246-1.48v-1.022h3.78v.893c0 3.133-2.062 5.31-5.026 5.31-2.963 0-5.025-2.177-5.025-5.31v-5.31c0-3.112 2.062-5.288 5.025-5.288 2.964 0 5.026 2.176 5.026 5.288v.696h-3.78v-.827zM26.496 48.813h3.78V59.15c0 3.112-2.083 5.288-5.026 5.288-2.964 0-5.025-2.176-5.025-5.288V48.813h3.78v10.468c0 1.305.708 1.458 1.245 1.458.537 0 1.246-.153 1.246-1.458V48.813zM41.66 64.177h-7.947V48.813h3.801v11.665h4.145zM50.4 61.587h-3.092l-.58 2.59h-3.78l3.909-15.363h4.037l3.845 15.363h-3.78l-.559-2.59zm-2.362-3.33h1.632l-.794-4.33-.838 4.33zM57.102 64.177V48.813h4.96c2.965 0 5.026 2.046 5.026 5.767v.414c0 2.22-.73 3.808-1.954 4.744l1.826 4.439h-4.103l-1.16-3.504h-.794v3.504h-3.801zm3.801-11.664v4.504h.687c.752 0 1.74-.217 1.74-2.067v-.348c0-1.85-.924-2.09-1.74-2.09h-.687zM20.48 103.178h6.276V68.825H20.48z"/>
            <g>
                <path d="M67.87 103.874H67c-3.986 0-6.506-1.764-8.064-2.832a17.84 17.84 0 0 1-9.622 2.832c-9.758 0-17.73-7.938-17.73-17.78 0-10.166 8.109-17.965 17.73-17.965 9.53 0 17.732 7.752 17.732 17.733 0 6.081-2.429 9.238-3.712 10.956 1.238.928 2.978 1.114 3.528 1.114h1.008v5.942zm-9.484-10.677c.87-1.254 2.337-2.971 2.382-7.15 0-6.87-5.269-11.976-11.454-11.976-7.055 0-11.224 6.034-11.454 11.56 0 .695.046.88.092 1.067 1.009-.232 2.2-.511 4.627-.418 8.889 0 15.715 6.87 15.715 6.917h.092zm-15.852-.975c-1.283 0-2.016.186-2.703.418 2.565 4.085 6.964 5.385 9.483 5.292 2.291 0 3.711-.65 4.628-1.021-4.765-3.575-8.155-4.689-11.408-4.689z"/>
            </g>
        </g>
    </g>
</svg>
