<?xml version="1.0" encoding="UTF-8" standalone="no"?>
<svg width="88px" height="133px" viewBox="0 0 88 133" version="1.1" xmlns="http://www.w3.org/2000/svg" xmlns:xlink="http://www.w3.org/1999/xlink">
    <!-- Generator: sketchtool 40.1 (33804) - http://www.bohemiancoding.com/sketch -->
    <title>3E6CE11C-8146-4CC7-98BC-32652818BCA9</title>
    <desc>Created with sketchtool.</desc>
    <defs>
        <polygon id="path-1" points="0 132.862146 87.7096 132.862146 87.7096 0 0 0"></polygon>
    </defs>
    <g id="Symbols" stroke="none" stroke-width="1" fill="none" fill-rule="evenodd">
        <g id="Menu---products" transform="translate(-76.000000, -24.000000)">
            <g id="Menu">
                <g id="logoarea">
                    <g id="Page-1-Copy" transform="translate(76.000000, 24.000000)">
                        <mask id="mask-2" fill="white">
                            <use xlink:href="#path-1"></use>
                        </mask>
                        <g id="Clip-2"></g>
                        <polygon id="Fill-4" fill="#FFFFFF" mask="url(#mask-2)" points="0.766088889 131.490887 12.1396 131.490887 12.1396 69.7172409 0.766088889 69.7172409"></polygon>
                        <path d="M36.28724,112.574841 C39.0533733,116.75803 42.7787067,119.571417 47.4862178,121.11014 C52.4582178,122.735749 57.3221733,122.374125 62.3635956,120.201954 C60.1191067,118.771476 58.1151511,117.4041 56.0251511,116.180403 C51.9967067,113.822322 47.7076844,112.18118 42.98404,111.86033 C40.7571511,111.70937 38.5571511,111.792859 36.28724,112.574841 M70.3623067,113.562147 C76.4035067,106.928651 76.2661289,94.7009026 70.0821733,86.9839901 C63.7456844,79.0768004 52.5022178,76.7827931 43.7555067,81.613023 C36.7751511,85.467596 30.9285289,96.3376763 32.8967956,101.779027 C47.4559067,99.1462091 59.5774178,104.141961 70.3623067,113.562147 M79.53924,120.113125 C82.06044,121.801837 84.78844,122.207632 87.71004,122.086768 L87.71004,132.862195 C86.1133289,132.760746 84.4858178,132.744242 82.88324,132.538917 C78.9794622,132.038954 75.4951511,130.452662 72.2895067,128.240202 C71.6979511,127.831494 71.28924,127.764023 70.6121289,128.15914 C51.1675511,139.506855 26.8839511,128.961023 21.9187956,107.790238 C17.8575956,90.4759682 29.2931956,72.7306617 46.8379511,69.1566507 C63.4186178,65.7792274 79.8995511,75.0348624 84.7938178,90.7968186 C87.9583956,100.987337 86.6398622,110.664786 80.0589289,119.373373 C79.89564,119.588892 79.7475067,119.815574 79.53924,120.113125" id="Combined-Shape" fill="#FFFFFF" mask="url(#mask-2)"></path>
                        <path d="M49.3855022,7.13011058 L49.3855022,15.3008734 C49.8685244,15.3008734 50.3026578,15.312523 50.7363022,15.2989318 C52.5398133,15.2440814 53.4809244,14.5261726 53.7058133,12.7379536 C53.8475911,11.6132785 53.7625244,10.4381215 53.6139022,9.30713613 C53.4848356,8.32468358 52.8551467,7.56551569 51.8353244,7.34854124 C51.0677689,7.18544635 50.26208,7.2009792 49.3855022,7.13011058 L49.3855022,7.13011058 Z M42.4119911,28.1212967 L42.4119911,0.538844161 L43.6029244,0.538844161 C46.3216356,0.539329562 49.0413244,0.510205474 51.7595467,0.548066788 C55.93368,0.606314964 59.0259022,2.92362153 60.1606133,6.90585511 C61.0010133,9.85515438 60.9599467,12.839888 60.1298133,15.7935558 C59.6893244,17.3628588 58.8675022,18.7341179 57.6047022,19.7937493 C57.2047911,20.1291617 57.1925689,20.3932201 57.3832356,20.8349354 C58.30088,22.957596 59.1857689,25.0943332 60.0794578,27.2271872 C60.1938578,27.5009536 60.2916356,27.7815157 60.4422133,28.1771179 C58.7403911,28.1771179 57.1407467,28.1882821 55.5406133,28.1727493 C54.68848,28.1644974 53.6359022,28.3989464 53.0423911,27.9926653 C52.4879911,27.6140522 52.41368,26.5350047 52.14088,25.7598186 C51.8128356,24.8249354 51.4955467,23.8866544 51.1782578,22.9483734 C50.7847022,21.7834099 50.7866578,21.7824391 49.3635022,21.9431069 L49.3635022,28.1212967 L42.4119911,28.1212967 Z" id="Fill-5" fill="#FFFFFF" mask="url(#mask-2)"></path>
                        <path d="M75.0984667,48.4180675 C75.6210889,48.4180675 76.0874889,48.4423376 76.5504667,48.4136989 C78.3270889,48.3030274 79.2999778,47.388531 79.4559333,45.6328339 C79.5214444,44.8945383 79.519,44.1450785 79.4794,43.4043558 C79.3464222,40.8914325 77.5947333,39.7153047 75.0984667,40.4492318 L75.0984667,48.4180675 Z M68.1635778,33.6332245 C69.1496667,33.6332245 70.0863778,33.6273996 71.0235778,33.6346807 C73.4078889,33.6521551 75.8054,33.5254653 78.1740667,33.7293339 C82.3697111,34.090958 85.0282889,36.4504945 86.0050889,40.534177 C86.6822,43.3640675 86.6426,46.2143449 85.7885111,49.0199653 C85.3216222,50.5533485 84.5090889,51.8906296 83.2668222,52.9279325 C82.8864667,53.245385 82.8996667,53.5026478 83.0737111,53.9098996 C84.0994,56.3116661 85.0986889,58.7245967 86.1483333,61.2321807 C85.8457111,61.2593631 85.613,61.2981953 85.3802889,61.2986807 C83.3826889,61.3035347 81.3850889,61.2763522 79.3889556,61.3166405 C78.8013111,61.3287755 78.5744667,61.1200529 78.4087333,60.5904799 C77.9320667,59.0682609 77.3962444,57.5644872 76.8834,56.0534325 C76.4844667,54.8787609 76.4844667,54.8787609 75.0554444,55.0612719 L75.0554444,61.2438303 L68.1635778,61.2438303 L68.1635778,33.6332245 Z" id="Fill-6" fill="#FFFFFF" mask="url(#mask-2)"></path>
                        <path d="M0.229484444,33.6730274 L7.17366222,33.6730274 L7.17366222,34.6603339 C7.17366222,40.4181661 7.17366222,46.1759982 7.17464,51.9343157 C7.17464,52.2920566 7.16241778,52.6527099 7.19761778,53.0075383 C7.34086222,54.432677 8.07175111,55.1030164 9.46312889,55.1083558 C10.88384,55.1136953 11.5707289,54.4938376 11.7315733,53.0332646 C11.7765511,52.6240712 11.7829067,52.2085675 11.7829067,51.7964617 C11.7863289,46.1211478 11.7853511,40.4453485 11.7853511,34.7700347 L11.7853511,33.68225 L18.6459289,33.68225 C18.66304,33.9696077 18.6904178,34.2108522 18.6904178,34.4520967 C18.6928622,40.4031186 18.6977511,46.3541405 18.6889511,52.3051624 C18.68504,55.2928084 17.7463733,57.9222281 15.3239289,59.8002464 C12.37544,62.0855164 9.04268444,62.353458 5.65419556,60.9982172 C2.39819556,59.6953996 0.780951111,57.0625821 0.350728889,53.6720529 C0.260773333,52.9638522 0.23584,52.2440018 0.234373333,51.5294909 C0.225573333,45.9366953 0.229484444,40.3438996 0.229484444,34.7515894 L0.229484444,33.6730274 Z" id="Fill-7" fill="#FFFFFF" mask="url(#mask-2)"></path>
                        <path d="M54.3970044,50.612519 C53.9203378,48.085519 53.46176,45.6551139 53.0031822,43.2242234 C52.9484267,43.2305336 52.89416,43.2368438 52.8394044,43.2436394 C52.3627378,45.6808401 51.8860711,48.1185263 51.3986489,50.612519 L54.3970044,50.612519 Z M63.7039822,61.2976613 C61.4247822,61.2976613 59.2932267,61.3122234 57.1626489,61.2714496 C56.9856711,61.2680518 56.7182489,60.9185628 56.6590933,60.6875117 C56.3642933,59.542935 56.0993156,58.3886504 55.8798044,57.2275701 C55.7883822,56.745081 55.5757156,56.6018876 55.1044267,56.6091686 C53.6348267,56.6324679 52.1642489,56.6382927 50.6951378,56.6067416 C50.1671378,56.595092 49.9764711,56.7989606 49.88016,57.2877599 C49.6621156,58.3935044 49.3629156,59.4832307 49.1468267,60.5889752 C49.0461156,61.1054423 48.8534933,61.323873 48.2839378,61.3146504 C46.26336,61.2806723 44.2418044,61.3010591 42.1019378,61.3010591 C42.1694044,60.9539971 42.2050933,60.6943073 42.2706044,60.4418985 C44.5185156,51.7634058 46.7727822,43.0863693 49.0094489,34.4044788 C49.1536711,33.8448109 49.3638933,33.6021102 50.0023822,33.6157015 C52.1896711,33.6618146 54.3789156,33.6331759 56.6331822,33.6331759 C58.9827822,42.8257088 61.3230933,51.9823219 63.7039822,61.2976613 L63.7039822,61.2976613 Z" id="Fill-8" fill="#FFFFFF" mask="url(#mask-2)"></path>
                        <path d="M79.1554622,17.5805128 C81.5123956,17.5805128 83.7495511,17.5805128 85.9871956,17.579542 C86.7943511,22.8039179 83.8487956,28.1855639 77.80124,28.6044653 C71.7727511,29.0214252 67.6758622,25.1241369 67.6538622,19.1046734 C67.64164,15.852969 67.6294178,12.60175 67.6577733,9.35053102 C67.6978622,4.73970255 70.4141289,1.23558942 74.6493733,0.270125912 C80.7252844,-1.11520985 85.9969733,2.97429745 86.1108844,9.16316606 C86.1201733,9.65681934 86.1118622,10.150958 86.1118622,10.7106259 L79.15644,10.7106259 C79.15644,10.0970785 79.18724,9.47139599 79.1500844,8.85008212 C79.0630622,7.39387774 78.2827956,6.65946533 76.8777289,6.66529015 C75.4795067,6.67160036 74.6435067,7.42542883 74.6283511,8.87241058 C74.5902178,12.5090383 74.5916844,16.1466369 74.6254178,19.7832646 C74.6391067,21.2749033 75.4130178,22.0025201 76.8215067,22.0209653 C78.3209289,22.0408668 79.0650178,21.3603339 79.1486178,19.8371442 C79.1887067,19.1027318 79.1554622,18.3639507 79.1554622,17.5805128" id="Fill-9" fill="#FFFFFF" mask="url(#mask-2)"></path>
                        <path d="M18.3125067,17.5954146 C18.9133511,22.6173781 16.5916178,26.8787175 12.1368622,28.2422102 C7.42006222,29.6862796 2.56295111,27.6306044 0.814195556,23.3610131 C0.355128889,22.241192 0.0911288889,20.9723526 0.0583733333,19.7632175 C-0.0389155556,16.1557139 0.0109511111,12.544327 0.0261066667,8.93488175 C0.0495733333,3.3634438 4.84410667,-0.650826277 10.4252622,0.0889255474 C15.7316622,0.792272263 18.86984,5.18224307 18.3437956,10.7158197 L11.47344,10.7158197 C11.47344,10.1226591 11.5233067,9.49891825 11.4636622,8.88634161 C11.2920622,7.12481971 10.1925511,6.37147664 8.46481778,6.7573708 C7.66597333,6.93599854 7.20006222,7.43256423 7.02650667,8.1859073 C6.91601778,8.66451314 6.86908444,9.16738905 6.86712889,9.65910073 C6.85344,12.7729511 6.85881778,15.8868015 6.86175111,19.0006518 C6.86224,19.3030569 6.86664,19.6083745 6.90575111,19.9078672 C7.11744,21.5276518 7.93584,22.1693526 9.57019556,22.0106263 C10.5548178,21.9154876 11.1859733,21.4228051 11.3424178,20.4447212 C11.4890844,19.5277978 11.4969067,18.5890314 11.5707289,17.5954146 L18.3125067,17.5954146 Z" id="Fill-10" fill="#FFFFFF" mask="url(#mask-2)"></path>
                        <polygon id="Fill-11" fill="#FFFFFF" mask="url(#mask-2)" points="25.0991644 33.6734157 31.9709867 33.6734157 31.9709867 54.6102369 39.5839644 54.6102369 39.5839644 61.2413062 25.0991644 61.2413062"></polygon>
                        <polygon id="Fill-12" fill="#FFFFFF" mask="url(#mask-2)" points="26.3946222 28.1387226 33.2376 28.1387226 33.2376 0.585394161 26.3946222 0.585394161"></polygon>
                    </g>
                </g>
            </g>
        </g>
    </g>
</svg>