<svg width="167" height="90" viewBox="0 0 167 90" fill="none" xmlns="http://www.w3.org/2000/svg">
<path fill-rule="evenodd" clip-rule="evenodd" d="M160 12C163.866 12 167 15.134 167 19C167 22.866 163.866 26 160 26H120C123.866 26 127 29.134 127 33C127 36.866 123.866 40 120 40H142C145.866 40 149 43.134 149 47C149 50.866 145.866 54 142 54H131.826C126.952 54 123 57.134 123 61C123 63.5773 125 65.9107 129 68C132.866 68 136 71.134 136 75C136 78.866 132.866 82 129 82H46C42.134 82 39 78.866 39 75C39 71.134 42.134 68 46 68H7C3.13401 68 0 64.866 0 61C0 57.134 3.13401 54 7 54H47C50.866 54 54 50.866 54 47C54 43.134 50.866 40 47 40H22C18.134 40 15 36.866 15 33C15 29.134 18.134 26 22 26H62C58.134 26 55 22.866 55 19C55 15.134 58.134 12 62 12H160ZM160 40C163.866 40 167 43.134 167 47C167 50.866 163.866 54 160 54C156.134 54 153 50.866 153 47C153 43.134 156.134 40 160 40Z" fill="#F3F7FF"/>
<path fill-rule="evenodd" clip-rule="evenodd" d="M71.1186 60.3066C71.0404 60.8599 71 61.4252 71 62C71 68.6274 76.3726 74 83 74C89.6274 74 95 68.6274 95 62C95 61.4252 94.9596 60.8599 94.8815 60.3066H124V87C124 88.6569 122.657 90 121 90H45C43.3431 90 42 88.6569 42 87V60.3066H71.1186Z" fill="white"/>
<path fill-rule="evenodd" clip-rule="evenodd" d="M96 60C96 67.1797 90.1797 73 83 73C75.8203 73 70 67.1797 70 60C70 59.7674 70.0061 59.5362 70.0182 59.3066H42L51.5604 31.0389C51.9726 29.8202 53.1159 29 54.4023 29H111.598C112.884 29 114.027 29.8202 114.44 31.0389L124 59.3066H95.9818C95.9939 59.5362 96 59.7674 96 60Z" fill="white"/>
<path fill-rule="evenodd" clip-rule="evenodd" d="M94.0976 60.9545C94.0976 66.5025 89.129 72 83 72C76.871 72 71.9024 66.5025 71.9024 60.9545C71.9024 60.7748 71.9077 59.5962 71.918 59.4188H51L59.1614 39.5755C59.5132 38.6338 60.4891 38 61.5873 38H104.413C105.511 38 106.487 38.6338 106.839 39.5755L115 59.4188H94.082C94.0923 59.5962 94.0976 60.7748 94.0976 60.9545Z" fill="#E8F0FE"/>
<path fill-rule="evenodd" clip-rule="evenodd" d="M111.598 30.25C111.973 30.25 112.327 30.3696 112.618 30.5781C112.908 30.7866 113.135 31.0839 113.255 31.4393L122.75 59.5123V86C122.75 86.4832 122.554 86.9208 122.237 87.2374C121.921 87.5541 121.483 87.75 121 87.75H45C44.5168 87.75 44.0793 87.5541 43.7626 87.2374C43.4459 86.9208 43.25 86.4832 43.25 86V59.5123L52.7446 31.4393C52.8648 31.0839 53.0916 30.7866 53.3822 30.5781C53.6728 30.3696 54.0271 30.25 54.4023 30.25H111.598Z" stroke="#75A4FE" stroke-width="2.5"/>
<path d="M56.0005 59C59.9371 59 64.1854 59 68.7454 59C70.6217 59 70.6217 60.3186 70.6217 61C70.6217 67.6274 76.1179 73 82.8978 73C89.6777 73 95.1738 67.6274 95.1738 61C95.1738 60.3186 95.1738 59 97.0501 59H122M48.5742 59H51.0005H48.5742Z" stroke="#75A4FE" stroke-width="2.5" stroke-linecap="round" stroke-linejoin="round"/>
<path d="M108.1 6.30273L97 18.7559M82.0996 2V18.7559V2ZM56 6.30273L67.0996 18.7559L56 6.30273Z" stroke="#A4C3FE" stroke-width="2.5" stroke-linecap="round" stroke-linejoin="round"/>
</svg>
