<svg width="33" height="28" viewBox="0 0 33 28" fill="none" xmlns="http://www.w3.org/2000/svg">
<path d="M26.1656 8.03985C28.1177 8.03985 29.7072 6.5364 29.7072 4.68994C29.7072 2.84347 28.1191 1.34002 26.1656 1.34002C24.2134 1.34002 22.6239 2.84347 22.6239 4.68994C22.6239 6.5364 24.2134 8.03985 26.1656 8.03985ZM26.1656 2.67998C27.3372 2.67998 28.2906 3.58176 28.2906 4.68994C28.2906 5.79812 27.3386 6.6999 26.1656 6.6999C24.994 6.6999 24.0406 5.79812 24.0406 4.68994C24.0406 3.58176 24.9954 2.67998 26.1656 2.67998Z" fill="#1C195B"/>
<path d="M32.3353 19.1818L31.4272 12.3157C31.2075 10.6421 29.696 9.38119 27.9138 9.38119H24.416C24.0222 9.38119 23.6255 9.44683 23.2359 9.57817C22.8676 9.70147 22.6749 10.0847 22.8053 10.4331C22.937 10.7815 23.3408 10.965 23.7091 10.8404C23.9458 10.7613 24.1838 10.7211 24.416 10.7211H27.9138C28.9834 10.7211 29.8886 11.4782 30.0218 12.4819L30.9299 19.3479C30.9554 19.5409 30.8945 19.7285 30.7585 19.8745C30.6225 20.0205 30.4341 20.1009 30.2273 20.1009H29.7074C29.3348 20.1009 29.0274 20.3716 29.0005 20.7227L28.3389 29.4808H23.9911L23.4811 22.7314C23.4542 22.3628 23.1114 22.0734 22.7246 22.111C22.335 22.1364 22.0404 22.458 22.0687 22.8265L22.6255 30.1977C22.6538 30.5475 22.9626 30.8195 23.3324 30.8195H28.999C29.3701 30.8195 29.679 30.5475 29.7045 30.1991L30.3661 21.437C30.9243 21.4021 31.447 21.161 31.8196 20.7617C32.2233 20.3288 32.4118 19.7539 32.3353 19.1818Z" fill="#1C195B"/>
<path d="M9.76351 22.2637C9.36826 22.2288 9.03537 22.5156 9.00701 22.8841L8.50837 29.4794H4.15916L3.49901 20.7213C3.47205 20.3717 3.16326 20.0996 2.79066 20.0996H2.27076C2.06391 20.0996 1.87551 20.0192 1.73951 19.8732C1.60351 19.7272 1.54262 19.5409 1.56812 19.3466L2.47622 12.4806C2.60797 11.4769 3.51322 10.7198 4.58422 10.7198H8.08197C8.24062 10.7198 8.40922 10.7426 8.61608 10.7949C8.99433 10.8833 9.38247 10.6743 9.48168 10.3165C9.58083 9.95874 9.35418 9.59161 8.97593 9.49777C8.64868 9.41737 8.36533 9.37987 8.08058 9.37987H4.58416C2.80201 9.37987 1.2918 10.6408 1.0708 12.3144L0.162761 19.1804C0.0876558 19.7525 0.274656 20.3274 0.678406 20.7602C1.05101 21.1595 1.57376 21.4007 2.13191 21.4356L2.79351 30.1977C2.82041 30.5474 3.12926 30.8195 3.49901 30.8195H9.16566C9.5368 30.8195 9.84566 30.5474 9.87255 30.1977L10.4179 22.9792C10.4463 22.6108 10.1517 22.2905 9.76351 22.2637Z" fill="#1C195B"/>
<path d="M6.33237 8.03985C8.28451 8.03985 9.87401 6.5364 9.87401 4.68994C9.87401 2.84347 8.28591 1.34002 6.33237 1.34002C4.38022 1.34002 2.79072 2.84347 2.79072 4.68994C2.79072 6.5364 4.38022 8.03985 6.33237 8.03985ZM6.33237 2.67998C7.50397 2.67998 8.45737 3.58176 8.45737 4.68994C8.45737 5.79812 7.50537 6.6999 6.33237 6.6999C5.16222 6.6999 4.20737 5.79812 4.20737 4.68994C4.20737 3.58176 5.16222 2.67998 6.33237 2.67998Z" fill="#1C195B"/>
<path d="M22.4866 19.0772L21.5473 11.2947C21.3249 9.43878 19.7708 8.03985 17.9348 8.03985H14.3181C12.4849 8.03985 10.9322 9.43878 10.7084 11.2947L9.76919 19.0772C9.6913 19.7285 9.9038 20.3757 10.3514 20.85C10.7382 21.2587 11.2496 21.4972 11.8063 21.5267L12.5883 31.539C12.6152 31.8887 12.9241 32.1594 13.2938 32.1594H18.9605C19.3316 32.1594 19.6405 31.8887 19.666 31.539L20.448 21.5267C21.0033 21.4972 21.5161 21.2601 21.9029 20.85C22.3534 20.3743 22.5645 19.7285 22.4866 19.0772ZM20.8489 19.9576C20.7668 20.0433 20.5911 20.1894 20.3304 20.1894H19.7907C19.4195 20.1894 19.1107 20.4601 19.0838 20.8098L18.3032 30.8194H13.9526L13.1734 20.8098C13.1451 20.4601 12.8377 20.1894 12.4665 20.1894H11.9282C11.6689 20.1894 11.4918 20.0434 11.4097 19.9576C11.2298 19.766 11.1448 19.5007 11.1773 19.2287L12.1166 11.4461C12.2582 10.2683 13.206 9.37987 14.3209 9.37987H17.9377C19.0512 9.37987 19.9989 10.2683 20.142 11.4461L21.0813 19.2287C21.1138 19.5007 21.0288 19.766 20.8489 19.9576Z" fill="#1C195B"/>
<path d="M16.1272 6.6999C18.0794 6.6999 19.6689 5.19644 19.6689 3.34998C19.6689 1.50351 18.0808 0 16.1272 0C14.1751 0 12.5856 1.50345 12.5856 3.34992C12.5856 5.19638 14.1751 6.6999 16.1272 6.6999ZM16.1272 1.33995C17.2988 1.33995 18.2522 2.24174 18.2522 3.34992C18.2522 4.4581 17.2988 5.35988 16.1272 5.35988C14.9556 5.35988 14.0022 4.4581 14.0022 3.34992C14.0022 2.2418 14.9571 1.33995 16.1272 1.33995Z" fill="#1C195B"/>
</svg>
