<?xml version="1.0" encoding="utf-8"?>
            <svg width="36" height="36" viewBox="0 0 36 36" fill="none"
                xmlns="http://www.w3.org/2000/svg">
                <circle cx="18" cy="18" r="18" fill="#E3E5EC" />
                <g clip-path="url(#clip0)">
                    <path
                        d="M26.5587 27.7907C26.8176 27.7907 27.0274 27.5808 27.0274 27.3219V25.0508C27.0274 24.7918 26.8176 24.582 26.5587 24.582H10.4824C10.2235 24.582 10.0137 24.7918 10.0137 25.0508V27.3219C10.0137 27.5808 10.2235 27.7907 10.4824 27.7907H26.5587ZM20.7154 26.8532H18.9894V25.5195H20.7154V26.8532ZM21.6529 25.5195H23.379V26.8532H21.6529V25.5195ZM18.0519 26.8532H16.3257V25.5195H18.0519V26.8532ZM15.3882 26.8532H13.6622V25.5195H15.3882V26.8532ZM26.0899 26.8532H24.3165V25.5195H26.0899V26.8532ZM10.9512 25.5195H12.7246V26.8532H10.9512V25.5195Z"
                        fill="#1C195B" fill-opacity="0.7" />
                    <path
                        d="M33.5312 32.9785H32.1805V15.1648H32.3775C32.6364 15.1648 32.8463 14.955 32.8463 14.6961C32.8463 14.4371 32.6364 14.2273 32.3775 14.2273H32.1805V12.5683H32.3775C32.6364 12.5683 32.8463 12.3585 32.8463 12.0996C32.8463 11.8406 32.6364 11.6308 32.3775 11.6308C31.6074 11.6308 27.2994 11.6308 26.4247 11.6308C26.1658 11.6308 25.956 11.8406 25.956 12.0996C25.956 12.3585 26.1658 12.5683 26.4247 12.5683H26.6217V14.2273H26.4247C26.1658 14.2273 25.956 14.4371 25.956 14.6961C25.956 14.955 26.1658 15.1648 26.4247 15.1648H26.6217V17.2057L23.3954 13.9794C23.1004 13.6842 22.708 13.5217 22.2906 13.5217H20.2301V9.77738H20.5023C20.7612 9.77738 20.9711 9.56756 20.9711 9.30863C20.9711 9.04969 20.7612 8.83988 20.5023 8.83988H20.2301V7.02344H20.5023C20.7612 7.02344 20.9711 6.81363 20.9711 6.55469C20.9711 6.29575 20.7612 6.08594 20.5023 6.08594C19.3176 6.08594 12.9627 6.08594 11.6434 6.08594C11.3844 6.08594 11.1746 6.29575 11.1746 6.55469C11.1746 6.81363 11.3844 7.02344 11.6434 7.02344H11.9156V8.83981H11.6434C11.3844 8.83981 11.1746 9.04963 11.1746 9.30856C11.1746 9.5675 11.3844 9.77731 11.6434 9.77731H11.9156V11.8805C11.9156 12.1394 12.1254 12.3493 12.3844 12.3493C12.6433 12.3493 12.8531 12.1394 12.8531 11.8805V9.77738H19.2926V22.4763H12.8532V13.7548C12.8532 13.4958 12.6434 13.286 12.3844 13.286C12.1255 13.286 11.9157 13.4958 11.9157 13.7548V22.4763H10.1188V20.357H10.3446C10.6036 20.357 10.8134 20.1472 10.8134 19.8883C10.8134 19.6293 10.6036 19.4195 10.3446 19.4195H10.1188V19.26C10.1188 19.0011 9.909 18.7913 9.65006 18.7913C9.39113 18.7913 9.18131 19.0011 9.18131 19.26V19.4195H8.95556C8.69663 19.4195 8.48681 19.6293 8.48681 19.8883C8.48681 20.1472 8.69663 20.357 8.95556 20.357H9.18131V22.4763H8.16781C7.70206 22.4763 7.32306 22.8553 7.32306 23.3211V26.3905H6.39687C5.43663 26.3905 4.53069 26.8141 3.91138 27.5529C3.74506 27.7513 3.77106 28.0469 3.96944 28.2132C4.16781 28.3796 4.46344 28.3535 4.62975 28.1551C5.0705 27.6295 5.7145 27.328 6.39681 27.328H7.323V28.578H6.39687C5.81487 28.578 5.34131 29.0515 5.34131 29.6336V32.9785H4.09131V29.644C4.09131 29.3851 3.8815 29.1753 3.62256 29.1753C3.36363 29.1753 3.15381 29.3851 3.15381 29.644V32.9785H2.46875C2.20981 32.9785 2 33.1883 2 33.4473C2 33.7062 2.20981 33.916 2.46875 33.916H33.5312C33.7902 33.916 34 33.7062 34 33.4473C34 33.1883 33.7902 32.9785 33.5312 32.9785ZM12.8532 8.83988V7.02344H19.2926V8.83981H12.8532V8.83988ZM27.5592 12.5683H31.2429V14.2273H27.5592V12.5683ZM22.2906 14.4592C22.4575 14.4592 22.6144 14.5242 22.7324 14.6423L26.6217 18.5316V20.2993L22.169 15.8465C22.0811 15.7586 21.9619 15.7093 21.8375 15.7093H20.2301V14.4593H22.2906V14.4592ZM6.27881 29.6335C6.27881 29.5685 6.33181 29.5155 6.39687 29.5155H7.32306V32.9784H6.27881V29.6335ZM8.26056 23.4138H22.4794C22.7383 23.4138 22.9481 23.2039 22.9481 22.945C22.9481 22.6861 22.7383 22.4763 22.4794 22.4763H20.2302V16.6467H21.6434L26.6217 21.6251V22.4763H24.3536C24.0946 22.4763 23.8848 22.6861 23.8848 22.945C23.8848 23.2039 24.0946 23.4138 24.3536 23.4138H28.7821V32.9785H22.4468V29.7246C22.4468 29.4656 22.2369 29.2558 21.978 29.2558H15.0646C14.8057 29.2558 14.5959 29.4656 14.5959 29.7246V32.9785H8.26056C8.26056 32.5663 8.26056 23.8318 8.26056 23.4138ZM15.5334 32.9785V30.1933H21.5093V32.9785H15.5334ZM29.7197 32.9785V23.321C29.7197 22.8553 29.3407 22.4763 28.8749 22.4763H27.5592C27.5592 21.0184 27.5592 16.6816 27.5592 15.1648H31.2429V32.9785H29.7197Z"
                        fill="#1C195B" fill-opacity="0.7" />
                </g>
                <defs>
                    <clipPath id="clip0">
                        <rect width="32" height="32" fill="white" transform="translate(2 4)" />
                    </clipPath>
                </defs>
            </svg>

